<mxfile host="65bd71144e">
    <diagram id="tr8WCDj-hul7nBdrf4UF" name="Страница 1">
        <mxGraphModel dx="917" dy="923" grid="1" gridSize="10" guides="1" tooltips="1" connect="0" arrows="1" fold="1" page="1" pageScale="1" pageWidth="827" pageHeight="1169" math="0" shadow="0">
            <root>
                <mxCell id="0"/>
                <mxCell id="1" parent="0"/>
                <mxCell id="2" style="edgeStyle=orthogonalEdgeStyle;rounded=0;orthogonalLoop=1;jettySize=auto;html=1;" parent="1" source="3" target="4" edge="1">
                    <mxGeometry relative="1" as="geometry"/>
                </mxCell>
                <mxCell id="3" value="Запуск" style="rounded=1;whiteSpace=wrap;html=1;arcSize=50;" parent="1" vertex="1">
                    <mxGeometry x="305" y="20" width="140" height="40" as="geometry"/>
                </mxCell>
                <mxCell id="195" style="edgeStyle=none;html=1;" parent="1" source="4" edge="1">
                    <mxGeometry relative="1" as="geometry">
                        <mxPoint x="375" y="200" as="targetPoint"/>
                    </mxGeometry>
                </mxCell>
                <mxCell id="4" value="int n;" style="rounded=0;whiteSpace=wrap;html=1;" parent="1" vertex="1">
                    <mxGeometry x="315" y="120" width="120" height="50" as="geometry"/>
                </mxCell>
                <mxCell id="5" value="#include &amp;lt;iostream&amp;gt;&lt;br&gt;using namespace std;&lt;br&gt;int main() {" style="strokeWidth=2;html=1;shape=mxgraph.flowchart.annotation_2;align=left;labelPosition=right;pointerEvents=1;" parent="1" vertex="1">
                    <mxGeometry x="455" y="50" width="20" height="60" as="geometry"/>
                </mxCell>
                <mxCell id="6" value="" style="endArrow=none;dashed=1;html=1;entryX=0;entryY=0.5;entryDx=0;entryDy=0;entryPerimeter=0;" parent="1" target="5" edge="1">
                    <mxGeometry width="50" height="50" relative="1" as="geometry">
                        <mxPoint x="375" y="80" as="sourcePoint"/>
                        <mxPoint x="465" y="70" as="targetPoint"/>
                    </mxGeometry>
                </mxCell>
                <mxCell id="7" value="Конец" style="rounded=1;whiteSpace=wrap;html=1;arcSize=50;" parent="1" vertex="1">
                    <mxGeometry x="305" y="2500" width="140" height="40" as="geometry"/>
                </mxCell>
                <mxCell id="10" value="return 0;&lt;br&gt;}" style="strokeWidth=2;html=1;shape=mxgraph.flowchart.annotation_2;align=left;labelPosition=right;pointerEvents=1;" parent="1" vertex="1">
                    <mxGeometry x="476.75" y="2450" width="20" height="60" as="geometry"/>
                </mxCell>
                <mxCell id="11" value="" style="endArrow=none;dashed=1;html=1;entryX=0;entryY=0.5;entryDx=0;entryDy=0;entryPerimeter=0;edgeStyle=orthogonalEdgeStyle;" parent="1" edge="1">
                    <mxGeometry width="50" height="50" relative="1" as="geometry">
                        <mxPoint x="376.75" y="2480" as="sourcePoint"/>
                        <mxPoint x="476.75" y="2480" as="targetPoint"/>
                    </mxGeometry>
                </mxCell>
                <mxCell id="236" style="edgeStyle=none;html=1;" parent="1" source="234" edge="1">
                    <mxGeometry relative="1" as="geometry">
                        <mxPoint x="375" y="280" as="targetPoint"/>
                    </mxGeometry>
                </mxCell>
                <mxCell id="234" value="int d;" style="rounded=0;whiteSpace=wrap;html=1;" parent="1" vertex="1">
                    <mxGeometry x="315" y="200" width="120" height="50" as="geometry"/>
                </mxCell>
                <mxCell id="370" value="" style="edgeStyle=orthogonalEdgeStyle;html=1;rounded=0;" parent="1" source="252" edge="1">
                    <mxGeometry relative="1" as="geometry">
                        <mxPoint x="375" y="360" as="targetPoint"/>
                    </mxGeometry>
                </mxCell>
                <mxCell id="252" value="int tmp;" style="rounded=0;whiteSpace=wrap;html=1;" parent="1" vertex="1">
                    <mxGeometry x="315" y="280" width="120" height="50" as="geometry"/>
                </mxCell>
                <mxCell id="366" style="edgeStyle=orthogonalEdgeStyle;rounded=0;html=1;" parent="1" target="7" edge="1">
                    <mxGeometry relative="1" as="geometry">
                        <mxPoint x="375.0576923076919" y="2440" as="sourcePoint"/>
                    </mxGeometry>
                </mxCell>
                <mxCell id="521" style="edgeStyle=none;html=1;" edge="1" parent="1" source="519" target="520">
                    <mxGeometry relative="1" as="geometry"/>
                </mxCell>
                <mxCell id="519" value="cin &amp;gt;&amp;gt; n;" style="shape=parallelogram;perimeter=parallelogramPerimeter;whiteSpace=wrap;html=1;fixedSize=1;" vertex="1" parent="1">
                    <mxGeometry x="253.39000000000001" y="360" width="243.25" height="40" as="geometry"/>
                </mxCell>
                <mxCell id="523" style="edgeStyle=none;html=1;" edge="1" parent="1" source="520" target="522">
                    <mxGeometry relative="1" as="geometry"/>
                </mxCell>
                <mxCell id="520" value="int* a = new int[n];" style="rounded=0;whiteSpace=wrap;html=1;" vertex="1" parent="1">
                    <mxGeometry x="314.86" y="430" width="120" height="50" as="geometry"/>
                </mxCell>
                <mxCell id="525" value="1" style="edgeStyle=none;html=1;rounded=0;" edge="1" parent="1" source="522" target="524">
                    <mxGeometry relative="1" as="geometry"/>
                </mxCell>
                <mxCell id="529" value="0" style="edgeStyle=orthogonalEdgeStyle;rounded=0;html=1;" edge="1" parent="1" source="522" target="528">
                    <mxGeometry x="-0.8651" relative="1" as="geometry">
                        <Array as="points">
                            <mxPoint x="530" y="535"/>
                            <mxPoint x="530" y="700"/>
                            <mxPoint x="375" y="700"/>
                        </Array>
                        <mxPoint as="offset"/>
                    </mxGeometry>
                </mxCell>
                <mxCell id="522" value="for (int i = 0; i &amp;lt; n; i++)" style="shape=hexagon;perimeter=hexagonPerimeter2;whiteSpace=wrap;html=1;fixedSize=1;" vertex="1" parent="1">
                    <mxGeometry x="277.52" y="510" width="195" height="50" as="geometry"/>
                </mxCell>
                <mxCell id="527" style="edgeStyle=orthogonalEdgeStyle;rounded=0;html=1;entryX=-0.003;entryY=0.52;entryDx=0;entryDy=0;entryPerimeter=0;" edge="1" parent="1" source="524" target="522">
                    <mxGeometry relative="1" as="geometry">
                        <Array as="points">
                            <mxPoint x="375" y="680"/>
                            <mxPoint x="230" y="680"/>
                            <mxPoint x="230" y="536"/>
                        </Array>
                    </mxGeometry>
                </mxCell>
                <mxCell id="524" value="a[i] = rand() % 100;" style="rounded=0;whiteSpace=wrap;html=1;" vertex="1" parent="1">
                    <mxGeometry x="315.02000000000004" y="610" width="120" height="50" as="geometry"/>
                </mxCell>
                <mxCell id="531" style="edgeStyle=orthogonalEdgeStyle;rounded=0;html=1;" edge="1" parent="1" source="528" target="530">
                    <mxGeometry relative="1" as="geometry"/>
                </mxCell>
                <mxCell id="528" value="cout &amp;lt;&amp;lt; &quot;Start array: &quot; &amp;lt;&amp;lt; endl;" style="shape=parallelogram;perimeter=parallelogramPerimeter;whiteSpace=wrap;html=1;fixedSize=1;" vertex="1" parent="1">
                    <mxGeometry x="253.39" y="730" width="243.25" height="40" as="geometry"/>
                </mxCell>
                <mxCell id="533" value="1" style="edgeStyle=orthogonalEdgeStyle;rounded=0;html=1;" edge="1" parent="1" source="530" target="532">
                    <mxGeometry relative="1" as="geometry"/>
                </mxCell>
                <mxCell id="536" value="0" style="edgeStyle=orthogonalEdgeStyle;rounded=0;html=1;" edge="1" parent="1" source="530" target="535">
                    <mxGeometry x="-0.8065" relative="1" as="geometry">
                        <Array as="points">
                            <mxPoint x="530" y="835"/>
                            <mxPoint x="530" y="990"/>
                            <mxPoint x="375" y="990"/>
                        </Array>
                        <mxPoint as="offset"/>
                    </mxGeometry>
                </mxCell>
                <mxCell id="530" value="for (int i = 0; i &amp;lt; n; i++)" style="shape=hexagon;perimeter=hexagonPerimeter2;whiteSpace=wrap;html=1;fixedSize=1;" vertex="1" parent="1">
                    <mxGeometry x="277.52" y="810" width="195" height="50" as="geometry"/>
                </mxCell>
                <mxCell id="534" style="edgeStyle=orthogonalEdgeStyle;rounded=0;html=1;entryX=-0.008;entryY=0.5;entryDx=0;entryDy=0;entryPerimeter=0;" edge="1" parent="1" source="532" target="530">
                    <mxGeometry relative="1" as="geometry">
                        <Array as="points">
                            <mxPoint x="375" y="970"/>
                            <mxPoint x="220" y="970"/>
                            <mxPoint x="220" y="835"/>
                        </Array>
                    </mxGeometry>
                </mxCell>
                <mxCell id="532" value="cout &amp;lt;&amp;lt; a[i] &amp;lt;&amp;lt; &quot; &quot;;" style="shape=parallelogram;perimeter=parallelogramPerimeter;whiteSpace=wrap;html=1;fixedSize=1;" vertex="1" parent="1">
                    <mxGeometry x="253.39" y="900" width="243.25" height="40" as="geometry"/>
                </mxCell>
                <mxCell id="538" style="edgeStyle=orthogonalEdgeStyle;rounded=0;html=1;" edge="1" parent="1" source="535" target="537">
                    <mxGeometry relative="1" as="geometry"/>
                </mxCell>
                <mxCell id="535" value="cout &amp;lt;&amp;lt; endl;" style="shape=parallelogram;perimeter=parallelogramPerimeter;whiteSpace=wrap;html=1;fixedSize=1;" vertex="1" parent="1">
                    <mxGeometry x="253.39999999999998" y="1010" width="243.25" height="40" as="geometry"/>
                </mxCell>
                <mxCell id="540" style="edgeStyle=orthogonalEdgeStyle;rounded=0;html=1;" edge="1" parent="1" source="537" target="539">
                    <mxGeometry relative="1" as="geometry"/>
                </mxCell>
                <mxCell id="537" value="d = n / 2;" style="rounded=0;whiteSpace=wrap;html=1;" vertex="1" parent="1">
                    <mxGeometry x="315.03000000000003" y="1090" width="120" height="50" as="geometry"/>
                </mxCell>
                <mxCell id="542" value="1" style="edgeStyle=orthogonalEdgeStyle;rounded=0;html=1;" edge="1" parent="1" source="539" target="541">
                    <mxGeometry relative="1" as="geometry"/>
                </mxCell>
                <mxCell id="561" value="0" style="edgeStyle=orthogonalEdgeStyle;rounded=0;html=1;" edge="1" parent="1" source="539" target="560">
                    <mxGeometry x="-0.9454" relative="1" as="geometry">
                        <Array as="points">
                            <mxPoint x="640" y="1209"/>
                            <mxPoint x="640" y="2080"/>
                            <mxPoint x="375" y="2080"/>
                        </Array>
                        <mxPoint x="-1" as="offset"/>
                    </mxGeometry>
                </mxCell>
                <mxCell id="539" value="while (d &amp;gt; 0)" style="rhombus;whiteSpace=wrap;html=1;" vertex="1" parent="1">
                    <mxGeometry x="317.51" y="1169" width="115.03" height="80" as="geometry"/>
                </mxCell>
                <mxCell id="544" value="1" style="edgeStyle=orthogonalEdgeStyle;rounded=0;html=1;" edge="1" parent="1" source="541" target="543">
                    <mxGeometry relative="1" as="geometry"/>
                </mxCell>
                <mxCell id="558" value="0" style="edgeStyle=orthogonalEdgeStyle;rounded=0;html=1;" edge="1" parent="1" source="541" target="557">
                    <mxGeometry x="-0.9445" relative="1" as="geometry">
                        <Array as="points">
                            <mxPoint x="590" y="1315"/>
                            <mxPoint x="590" y="1960"/>
                            <mxPoint x="375" y="1960"/>
                        </Array>
                        <mxPoint as="offset"/>
                    </mxGeometry>
                </mxCell>
                <mxCell id="541" value="for (int i = 0; i &amp;lt; n - d; i++)" style="shape=hexagon;perimeter=hexagonPerimeter2;whiteSpace=wrap;html=1;fixedSize=1;" vertex="1" parent="1">
                    <mxGeometry x="277.35999999999996" y="1290" width="195" height="50" as="geometry"/>
                </mxCell>
                <mxCell id="546" style="edgeStyle=orthogonalEdgeStyle;rounded=0;html=1;" edge="1" parent="1" source="543" target="545">
                    <mxGeometry relative="1" as="geometry"/>
                </mxCell>
                <mxCell id="543" value="int j = i;" style="rounded=0;whiteSpace=wrap;html=1;" vertex="1" parent="1">
                    <mxGeometry x="314.86" y="1380" width="120" height="50" as="geometry"/>
                </mxCell>
                <mxCell id="548" value="1" style="edgeStyle=orthogonalEdgeStyle;rounded=0;html=1;" edge="1" parent="1" source="545" target="547">
                    <mxGeometry relative="1" as="geometry"/>
                </mxCell>
                <mxCell id="556" value="0" style="edgeStyle=orthogonalEdgeStyle;rounded=0;html=1;entryX=-0.002;entryY=0.516;entryDx=0;entryDy=0;entryPerimeter=0;" edge="1" parent="1" source="545" target="541">
                    <mxGeometry x="-0.9456" relative="1" as="geometry">
                        <Array as="points">
                            <mxPoint x="540" y="1510"/>
                            <mxPoint x="540" y="1940"/>
                            <mxPoint x="170" y="1940"/>
                            <mxPoint x="170" y="1316"/>
                        </Array>
                        <mxPoint as="offset"/>
                    </mxGeometry>
                </mxCell>
                <mxCell id="545" value="while (j &amp;gt;= 0 &amp;amp;&amp;amp; a[j] &amp;gt; a[j + d])" style="rhombus;whiteSpace=wrap;html=1;" vertex="1" parent="1">
                    <mxGeometry x="273.58" y="1470" width="203.03" height="80" as="geometry"/>
                </mxCell>
                <mxCell id="552" style="edgeStyle=orthogonalEdgeStyle;rounded=0;html=1;" edge="1" parent="1" source="547" target="549">
                    <mxGeometry relative="1" as="geometry"/>
                </mxCell>
                <mxCell id="547" value="tmp = a[j];" style="rounded=0;whiteSpace=wrap;html=1;" vertex="1" parent="1">
                    <mxGeometry x="315.09000000000003" y="1580" width="120" height="50" as="geometry"/>
                </mxCell>
                <mxCell id="553" style="edgeStyle=orthogonalEdgeStyle;rounded=0;html=1;" edge="1" parent="1" source="549" target="551">
                    <mxGeometry relative="1" as="geometry"/>
                </mxCell>
                <mxCell id="549" value="a[j] = a[j + d];" style="rounded=0;whiteSpace=wrap;html=1;" vertex="1" parent="1">
                    <mxGeometry x="314.86" y="1660" width="120" height="50" as="geometry"/>
                </mxCell>
                <mxCell id="555" style="edgeStyle=orthogonalEdgeStyle;rounded=0;html=1;entryX=-0.004;entryY=0.48;entryDx=0;entryDy=0;entryPerimeter=0;" edge="1" parent="1" source="550" target="545">
                    <mxGeometry relative="1" as="geometry">
                        <Array as="points">
                            <mxPoint x="375" y="1900"/>
                            <mxPoint x="230" y="1900"/>
                            <mxPoint x="230" y="1508"/>
                        </Array>
                    </mxGeometry>
                </mxCell>
                <mxCell id="550" value="j--;" style="rounded=0;whiteSpace=wrap;html=1;" vertex="1" parent="1">
                    <mxGeometry x="314.86" y="1820" width="120" height="50" as="geometry"/>
                </mxCell>
                <mxCell id="554" style="edgeStyle=orthogonalEdgeStyle;rounded=0;html=1;" edge="1" parent="1" source="551" target="550">
                    <mxGeometry relative="1" as="geometry"/>
                </mxCell>
                <mxCell id="551" value="a[j + d] = tmp;" style="rounded=0;whiteSpace=wrap;html=1;" vertex="1" parent="1">
                    <mxGeometry x="314.86000000000007" y="1740" width="120" height="50" as="geometry"/>
                </mxCell>
                <mxCell id="559" style="edgeStyle=orthogonalEdgeStyle;rounded=0;html=1;entryX=-0.015;entryY=0.506;entryDx=0;entryDy=0;entryPerimeter=0;" edge="1" parent="1" source="557" target="539">
                    <mxGeometry relative="1" as="geometry">
                        <Array as="points">
                            <mxPoint x="375" y="2060"/>
                            <mxPoint x="120" y="2060"/>
                            <mxPoint x="120" y="1209"/>
                            <mxPoint x="316" y="1209"/>
                        </Array>
                    </mxGeometry>
                </mxCell>
                <mxCell id="557" value="d = d / 2;" style="rounded=0;whiteSpace=wrap;html=1;" vertex="1" parent="1">
                    <mxGeometry x="315.09000000000003" y="1980" width="120" height="50" as="geometry"/>
                </mxCell>
                <mxCell id="567" style="edgeStyle=orthogonalEdgeStyle;rounded=0;html=1;" edge="1" parent="1" source="560" target="564">
                    <mxGeometry relative="1" as="geometry"/>
                </mxCell>
                <mxCell id="560" value="cout &amp;lt;&amp;lt; &quot;Final array:&quot; &amp;lt;&amp;lt; endl;" style="shape=parallelogram;perimeter=parallelogramPerimeter;whiteSpace=wrap;html=1;fixedSize=1;" vertex="1" parent="1">
                    <mxGeometry x="253.46999999999997" y="2110" width="243.25" height="40" as="geometry"/>
                </mxCell>
                <mxCell id="562" value="1" style="edgeStyle=orthogonalEdgeStyle;rounded=0;html=1;" edge="1" parent="1" source="564" target="566">
                    <mxGeometry relative="1" as="geometry"/>
                </mxCell>
                <mxCell id="563" value="0" style="edgeStyle=orthogonalEdgeStyle;rounded=0;html=1;" edge="1" parent="1" source="564">
                    <mxGeometry x="-0.8065" relative="1" as="geometry">
                        <mxPoint x="375.180909090909" y="2390" as="targetPoint"/>
                        <Array as="points">
                            <mxPoint x="530.09" y="2215"/>
                            <mxPoint x="530.09" y="2370"/>
                            <mxPoint x="375.09" y="2370"/>
                        </Array>
                        <mxPoint as="offset"/>
                    </mxGeometry>
                </mxCell>
                <mxCell id="564" value="for (int i = 0; i &amp;lt; n; i++)" style="shape=hexagon;perimeter=hexagonPerimeter2;whiteSpace=wrap;html=1;fixedSize=1;" vertex="1" parent="1">
                    <mxGeometry x="277.60999999999996" y="2190" width="195" height="50" as="geometry"/>
                </mxCell>
                <mxCell id="565" style="edgeStyle=orthogonalEdgeStyle;rounded=0;html=1;entryX=-0.008;entryY=0.5;entryDx=0;entryDy=0;entryPerimeter=0;" edge="1" parent="1" source="566" target="564">
                    <mxGeometry relative="1" as="geometry">
                        <Array as="points">
                            <mxPoint x="375.09" y="2350"/>
                            <mxPoint x="220.09" y="2350"/>
                            <mxPoint x="220.09" y="2215"/>
                        </Array>
                    </mxGeometry>
                </mxCell>
                <mxCell id="566" value="cout &amp;lt;&amp;lt; a[i] &amp;lt;&amp;lt; &quot; &quot;;" style="shape=parallelogram;perimeter=parallelogramPerimeter;whiteSpace=wrap;html=1;fixedSize=1;" vertex="1" parent="1">
                    <mxGeometry x="253.48" y="2280" width="243.25" height="40" as="geometry"/>
                </mxCell>
                <mxCell id="568" value="delete[]a;" style="rounded=0;whiteSpace=wrap;html=1;" vertex="1" parent="1">
                    <mxGeometry x="315.09000000000003" y="2390" width="120" height="50" as="geometry"/>
                </mxCell>
            </root>
        </mxGraphModel>
    </diagram>
</mxfile>